<?xml version="1.0" encoding="UTF-8" standalone="no"?>
<svg
   width="137.68033"
   height="93.555344"
   viewBox="0 0 137.68032 93.555344"
   version="1.1"
   id="svg18"
   sodipodi:docname="Big_Plate.svg"
   inkscape:version="1.1 (c68e22c387, 2021-05-23)"
   inkscape:export-filename="C:\Users\rumme\Desktop\School\Software Engineering\Panda 2\project-3-44-cowboys\frontend\src\assets\Big_Plate.png"
   inkscape:export-xdpi="615.67834"
   inkscape:export-ydpi="615.67834"
   xmlns:inkscape="http://www.inkscape.org/namespaces/inkscape"
   xmlns:sodipodi="http://sodipodi.sourceforge.net/DTD/sodipodi-0.dtd"
   xmlns="http://www.w3.org/2000/svg"
   xmlns:svg="http://www.w3.org/2000/svg">
  <defs
     id="defs22" />
  <sodipodi:namedview
     id="namedview20"
     pagecolor="#ffffff"
     bordercolor="#666666"
     borderopacity="1.0"
     inkscape:pageshadow="2"
     inkscape:pageopacity="0.0"
     inkscape:pagecheckerboard="0"
     showgrid="false"
     inkscape:zoom="3.9527631"
     inkscape:cx="56.66922"
     inkscape:cy="33.64735"
     inkscape:window-width="1920"
     inkscape:window-height="974"
     inkscape:window-x="-11"
     inkscape:window-y="-11"
     inkscape:window-maximized="1"
     inkscape:current-layer="svg18"
     fit-margin-left="14"
     fit-margin-top="0"
     fit-margin-right="14"
     fit-margin-bottom="0"
     height="83.996117px" />
  <path
     style="fill:#ffffff;stroke:none;stroke-width:0.346578;stroke-linecap:round;stroke-miterlimit:4;stroke-dasharray:none;stroke-opacity:0"
     d="m 11.942774,40.053561 c -2.4593756,0.09153 -4.9732887,-0.144505 -7.3993098,0.292764 -0.3430046,0.440356 0.4803147,0.919954 0.6737533,1.306295 5.6713575,6.79887 11.1990625,13.723392 17.0424995,20.3752 0.267698,0.234848 0.921623,1.204998 1.137401,0.430128 2.226741,-6.749618 4.190051,-13.588022 6.140364,-20.422365 0.0027,-0.522735 0.611948,-1.375199 0.102102,-1.750518 -5.886107,-0.31481 -11.802293,-0.182601 -17.696814,-0.231504 z"
     id="path2639" />
  <path
     style="fill:#ffffff;stroke:none;stroke-width:0.346578;stroke-linecap:round;stroke-miterlimit:4;stroke-dasharray:none;stroke-opacity:0"
     d="m 14.593896,56.723837 c -1.308548,2.502136 -2.557999,5.040639 -3.7511,7.600014 0.278188,0.48113 1.141145,0.05584 1.608339,0.21898 2.801252,-0.04048 5.631702,0.166399 8.416368,-0.113724 0.450076,-0.423896 -0.550408,-0.900054 -0.682782,-1.298362 -1.786261,-2.152091 -3.560446,-4.315708 -5.394859,-6.426542 l -0.172427,0.01728 z"
     id="path2834" />
  <path
     style="fill:#ffff00;stroke:none;stroke-width:0.444674;stroke-linecap:round;stroke-miterlimit:4;stroke-dasharray:none;stroke-opacity:0"
     d="m 3.703487,42.362921 c 1.7532871,7.228456 3.6573426,14.439531 5.7555811,21.574963 0.6922239,0.07972 0.7289729,-1.1563 1.1506119,-1.557243 1.273635,-2.583093 2.744159,-5.154055 3.804209,-7.786565 C 10.912354,50.476093 7.5933393,46.17465 3.930601,42.208762 L 3.74664,42.333641 Z"
     id="path2678" />
  <path
     style="fill:#ffffff;stroke:none;stroke-width:0.346578;stroke-linecap:round;stroke-miterlimit:4;stroke-dasharray:none;stroke-opacity:0"
     d="m 14.593895,56.723837 c -1.308547,2.502136 -2.557998,5.040639 -3.7511,7.600014 0.278189,0.48113 1.141146,0.05584 1.60834,0.218982 2.801251,-0.04048 5.631702,0.166397 8.416368,-0.113725 0.450076,-0.423895 -0.55041,-0.900054 -0.682782,-1.298362 -1.786261,-2.152091 -3.560446,-4.315706 -5.39486,-6.426542 l -0.172426,0.01728 z"
     id="path2600" />
  <!-- Outer rounded square with thin stroke -->
  <rect
     x="15"
     y="12.559218"
     width="107.68032"
     height="79.996124"
     rx="20.19006"
     ry="14.999273"
     fill="none"
     stroke="#000000"
     stroke-width="2.00387"
     id="rect2"
     style="stroke-width:2;stroke-miterlimit:4;stroke-dasharray:none" />
  <path
     style="fill:#ffff00;stroke:none;stroke-width:0.578252;stroke-linecap:round;stroke-miterlimit:4;stroke-dasharray:none;stroke-opacity:0"
     d="m 14.161657,50.744752 c -1.858364,4.904587 -3.632801,9.88046 -5.3272126,14.897245 0.395076,0.943092 1.6206246,0.109452 2.2841216,0.429236 3.978263,-0.07934 7.997992,0.326165 11.9527,-0.222917 0.639185,-0.830907 -0.781676,-1.76425 -0.969669,-2.544998 -2.5368,-4.218443 -5.05645,-8.459478 -7.661634,-12.597052 l -0.244876,0.03387 z"
     id="path3068" />
  <line
     x1="15.166897"
     y1="53.553673"
     x2="83.413643"
     y2="53.553673"
     stroke="#000000"
     stroke-width="2.79278"
     id="line6"
     style="stroke-width:2;stroke-miterlimit:4;stroke-dasharray:none" />
  <path
     style="fill:#ffffff;stroke:#fffffd;stroke-width:2.2803;stroke-linecap:round;stroke-miterlimit:4;stroke-dasharray:none;stroke-opacity:0"
     d="m 15.229228,38.771671 c -3.534356,0.05965 -7.0854486,-0.06624 -10.6095761,0.19787 -0.026425,0.794982 0.9830637,1.458819 1.3371432,2.193741 6.1118699,8.330577 12.1896339,16.698999 18.4284109,24.907944 0.626744,-0.386335 0.533022,-1.801416 0.899699,-2.545294 2.144702,-8.110472 4.356837,-16.222933 6.41156,-24.348688 -0.734611,-0.619178 -1.88021,-0.205659 -2.756716,-0.37198 -4.569905,-0.05456 -9.140425,-0.03289 -13.710521,-0.03359 z"
     id="path2280" />
  <path
     style="fill:#ffffff;stroke:none;stroke-width:0.744653;stroke-linecap:round;stroke-miterlimit:4;stroke-dasharray:none;stroke-opacity:0"
     d="m 2.979122,39.375846 c 4.1407129,8.583164 8.637494,17.145688 13.592879,25.618394 1.634811,0.09465 1.721602,-1.373007 2.717382,-1.849091 3.007925,-3.0672 6.480838,-6.119996 8.984347,-9.24587 C 20.0042,49.009532 12.165731,43.901944 3.515497,39.192796 l -0.434462,0.148283 z"
     id="path3107" />
  <!-- Vertical divider line in the middle -->
  <line
     x1="83.115059"
     y1="12.557283"
     x2="83.115059"
     y2="92.557281"
     stroke="#000000"
     stroke-width="2"
     id="line4"
     style="stroke-width:2;stroke-miterlimit:4;stroke-dasharray:none" />
  <!-- Horizontal divider line on the left -->
  <!-- Diagonal scissor lines at the top right -->
  <line
     x1="108.033"
     y1="24.805138"
     x2="123.47012"
     y2="1"
     stroke="#000000"
     stroke-width="1.91698"
     id="line8"
     style="stroke-width:2;stroke-linecap:round;stroke-miterlimit:4;stroke-dasharray:none" />
  <line
     x1="108.73817"
     y1="30.86939"
     x2="128.73816"
     y2="10.86939"
     stroke="#000000"
     stroke-width="2"
     id="line10"
     style="stroke-width:2;stroke-linecap:round;stroke-miterlimit:4;stroke-dasharray:none" />
  <!-- Envelope or trapezoid shape in the lower-left quadrant -->
  <polygon
     points="35,60 25,80 15,80 15,60 "
     fill="none"
     stroke="#000000"
     stroke-width="2"
     id="polygon12"
     transform="matrix(1.4964553,0,0.35335427,1.3257156,-41.880727,-40.415249)"
     style="fill:#ffffff;stroke-width:1.41995;stroke-miterlimit:4;stroke-dasharray:none" />
  <line
     x1="1.7673607"
     y1="39.127689"
     x2="23.799"
     y2="65.641998"
     stroke="#000000"
     stroke-width="2.56163"
     id="line14"
     style="fill:#ffffff;stroke-width:2;stroke-miterlimit:4;stroke-dasharray:none" />
  <path
     style="fill:none;stroke:#000000;stroke-width:2;stroke-linecap:butt;stroke-linejoin:miter;stroke-miterlimit:4;stroke-dasharray:none;stroke-opacity:1"
     d="M 8.8344454,65.641997 14.609125,53.944443"
     id="path985" />
</svg>
